PathFileType	4	(X/Y/Z)	C:\Users\°ÂÌØÂü\Desktop\20210112\bx_n_10_901-Unnamed.trc
DataRate	CameraRate	NumFrames	NumMarkers	Units	OrigDataRate	OrigDataStartFrame	OrigNumFrames
50.00	50.00	       9	0	mm	50.00	65	       518
Frame#	Time	
		

65	1.280	-139.65141	90.65255	1291.88086	-390.80362	261.57129	1145.06165	-950.09064	92.50159	1091.86841	-780.50067	-7.37778	984.63422				-766.33685	213.25815	815.34534	-848.70618	282.88211	728.06799	-375.79422	-67.47753	1130.40625	-847.59515	254.79498	624.45526	-762.54828	-6.81992	808.14935	-766.21436	209.13823	536.61334	-850.18915	261.49792	483.48984	-517.94574	-72.79889	142.85902	-548.79248	-26.38689	163.33168	-778.40436	236.70383	1006.88129	-792.79187	37.94238	171.26453	-597.32880	25.48507	168.06015	-671.84290	51.64939	163.08600	-719.57605	159.71687	221.81818	-797.33423	182.61127	180.40631	-772.53058	231.62753	201.04865	-592.63464	220.02293	174.51631	-882.59796	295.97556	144.62752	-555.80157	254.37955	163.66290	-658.80096	299.77942	156.42702	-622.44257	307.64145	157.63237	-528.01794	303.85416	146.44496	-824.22748	-35.89303	608.07104	-854.27997	-75.98816	860.01508	-838.22351	-47.02724	471.71307	-763.58838	-22.04848	201.90108	-875.69330	-78.64300	141.12302	-845.54956	-63.50531	744.76611	-830.82715	249.75940	563.20825	-725.44586	65.93365	220.39113	-818.81464	-33.80313	560.10095	-675.02924	176.23039	163.65016	-606.83502	-76.20933	156.91006	-648.97058	-68.72958	160.49544	-755.43835	17.04011	526.31329	-791.91492	146.76530	571.27588	-876.01190	290.17038	863.49878	
66	1.300	-135.61072	89.73853	1270.84985				-950.40393	92.37482	1092.46692	-782.62744	-8.58081	982.56482				-768.99219	212.89815	814.83691	-850.89221	283.00970	727.54944	-372.16928	-67.04581	1113.36621	-849.10797	254.64824	623.51105	-765.57886	-6.52366	807.34467	-767.45300	209.33279	536.45990	-851.28534	262.25601	483.34985	-518.61768	-72.44849	142.58499	-548.92181	-26.20828	163.23567	-778.90607	237.16205	1004.45410	-792.76788	37.86326	171.11716	-597.27893	25.66497	168.01250	-671.89258	51.56183	163.02731	-719.63562	160.02037	222.25117	-797.45642	182.68672	180.28592	-772.46893	231.71632	201.10463	-592.52350	220.06807	174.41966	-882.58258	296.13330	144.73563	-555.67584	254.34389	163.64937	-658.80096	299.77942	156.42702	-622.32837	307.50745	157.81177	-527.99194	303.95831	146.40175	-826.02350	-35.92993	607.55444	-858.35999	-75.29202	858.62799	-839.57788	-47.49713	472.04999	-763.53052	-21.86564	201.64183	-875.79388	-78.47688	141.16841	-847.91089	-63.30288	744.12689	-831.64929	249.67451	562.83722	-725.44586	65.93365	220.39113	-820.13519	-33.54058	559.37408	-675.04248	176.20038	163.78436	-606.94183	-76.06495	156.80872	-649.01141	-68.80934	160.64331	-756.91632	17.15639	526.60651	-793.77148	146.64540	570.61188	-878.46875	290.13138	863.02094	
67	1.320	-132.60796	89.01366	1250.73206				-950.02405	92.19666	1093.07300	-784.53662	-8.45441	979.41650				-770.85791	212.62550	814.29230	-852.13812	284.19067	727.36377				-849.98108	254.79816	623.37256	-767.78693	-7.27305	807.24030	-768.32397	208.94043	536.48584	-851.90717	262.44727	483.01862	-518.16321	-72.48717	142.56010	-548.88281	-26.29836	162.94064	-780.23645	236.44431	1001.98511	-792.61218	37.81041	170.95686	-597.28931	25.47240	167.70352	-672.09436	51.40464	163.14650	-719.74170	159.87274	222.21002	-797.33020	182.95883	180.02757	-772.39838	231.97055	201.12082	-592.64990	219.95779	174.26706	-882.62134	296.14355	144.72720	-555.81104	253.87975	163.33258	-658.80096	299.77942	156.42702	-622.38129	307.20718	157.79570	-528.03778	303.97382	146.17062	-827.77191	-36.11410	607.03870	-860.83722	-76.03580	858.26880	-840.81299	-47.11938	471.01065	-763.50964	-21.95645	201.59418	-875.99792	-78.69180	141.55168	-849.96277	-64.11525	743.41309	-832.56921	249.61815	562.54248	-725.44586	65.93365	220.39113	-821.57416	-33.48734	559.08734	-675.18896	176.30675	163.64822	-606.86938	-76.02855	156.59274	-648.85266	-68.84641	160.85258	-758.87317	16.61937	526.04944	-795.05414	146.45940	570.06787	-880.31976	290.39392	862.32294	
68	1.340	-129.59244	88.59151	1231.26807				-949.75250	92.23804	1093.57373	-786.04541	-8.49759	976.86755				-772.19556	212.81807	813.86853	-853.25055	284.09634	727.09393				-850.91064	255.21140	623.30817	-769.51025	-7.12745	806.78021	-769.31738	208.77599	536.50476	-852.24371	262.39285	482.73294	-518.19812	-72.37204	142.59262	-548.74530	-26.38660	162.93607	-781.20465	236.24335	999.28052	-792.83734	37.98537	171.17351	-597.21460	25.95521	167.66235	-671.95251	51.42904	163.00720	-720.01306	159.67287	222.03529	-797.38751	183.00925	179.96587	-772.32678	231.95609	200.84967	-592.52570	219.88356	174.21269	-882.67877	296.03351	144.69809	-555.93298	253.62874	163.15285	-658.76385	299.69891	156.51987	-622.27576	307.00293	157.63010	-528.03009	304.07355	146.50133	-829.22894	-36.17015	607.03857	-862.66895	-75.83325	857.81354	-841.69617	-47.10979	470.95334	-763.38348	-21.90701	201.54953	-875.88751	-78.54328	141.29303	-852.05145	-64.08292	742.99908	-833.71802	249.75194	562.60333	-725.57654	65.88546	220.24352	-822.84851	-33.21265	558.49890	-675.33948	176.23352	163.65878	-606.81750	-76.00124	156.67717	-649.04138	-68.82787	160.70816	-760.73590	16.48170	525.95367	-796.41089	146.51292	570.07300	-881.54419	290.58276	862.44659	
69	1.360	-126.88869	87.96872	1212.62695				-948.91541	92.06456	1093.91492	-787.13324	-9.11609	974.96356				-773.54822	212.09503	813.54840	-854.02966	283.55087	726.70166				-851.66846	255.11215	623.30347	-771.30597	-7.26950	806.35333	-769.82507	208.33406	536.49738	-852.34186	262.47003	482.48401	-518.28815	-72.16663	142.56458	-548.57440	-26.28057	162.96130	-782.43158	234.32288	995.62469	-792.89063	38.02541	171.14561	-597.05084	25.69257	167.73163	-671.84290	51.64939	163.08600	-720.19745	159.88220	222.52727	-797.50269	182.97127	179.97987	-772.36743	231.87553	200.95837	-592.68732	219.76610	174.09006	-882.48413	295.92358	144.68719	-556.08215	253.37813	162.88116	-658.83606	299.60336	156.69241	-622.11926	306.77737	157.91136	-527.97821	303.95071	146.25775	-830.42523	-35.91870	606.57129	-864.05176	-76.07811	857.43756	-842.71942	-46.95587	470.74997	-763.57898	-21.65711	201.71024	-875.85034	-78.68372	141.27127	-853.32916	-64.09098	742.49652	-834.06494	249.79970	562.61383	-725.57654	65.88546	220.24352	-824.25360	-33.58612	558.30328	-675.30414	176.12907	163.64899	-606.92804	-76.02032	156.51430	-648.97180	-68.77323	160.55199	-761.74213	16.37537	525.45203	-797.14148	146.13394	569.85046	-882.82806	290.30215	862.36127	
70	1.380	-124.44180	87.68091	1195.28223				-948.44891	91.84748	1094.43872	-788.30707	-9.30968	972.73761				-774.81104	210.86955	812.14380	-854.72394	283.32767	726.61511				-851.90601	255.18059	623.24384	-772.61249	-8.05202	806.46814	-770.54346	207.83476	536.27441	-852.68140	262.66287	482.68472	-518.31573	-72.00642	142.20299	-548.74530	-26.38660	162.93607	-783.50946	233.20531	993.71204	-793.30786	37.84522	171.82935	-597.19214	25.72180	167.66493	-671.70105	51.67378	162.94669	-720.62634	159.70703	222.30539	-798.05780	184.13770	179.32504	-772.30157	232.18590	200.85262	-592.80865	219.32895	174.06148	-882.60706	296.18478	144.78162	-555.82880	253.69589	163.12801	-658.83606	299.60336	156.69241	-621.90405	307.01465	158.33591	-527.97375	304.13675	146.47626	-831.32404	-35.50397	605.95599	-865.87604	-76.58573	856.77899	-843.20233	-46.64624	470.20941	-763.62445	-21.57880	201.54262	-875.95648	-78.79716	141.44162	-854.99774	-64.33259	742.50256	-834.32446	249.98396	562.76294	-725.44586	65.93365	220.39113	-825.14209	-33.36539	558.11957	-675.27106	176.16656	163.54155	-606.83777	-76.15631	156.70956	-648.95563	-68.79757	160.60040	-762.57019	16.67175	525.54755	-798.45203	145.51501	569.87543	-883.74017	290.16568	862.35822	
71	1.400	-122.41262	87.27695	1179.09509	-371.20407	252.31831	1053.62988	-947.70160	91.03882	1095.16162							-775.12195	211.00652	812.78467	-854.89166	283.38782	726.37750				-851.90601	255.18059	623.24384	-773.57788	-8.27715	806.07513	-770.72418	207.51823	536.37903	-852.27606	262.79947	482.58585	-518.07227	-72.69772	142.78549	-548.74725	-26.38282	163.02048	-783.51196	233.28958	991.68848	-792.66547	38.48755	171.18083	-597.59937	25.61206	167.72218	-671.51447	51.71122	162.79248	-720.64404	159.77190	222.40431	-798.03552	184.41528	179.56537	-772.29175	232.32405	200.96695	-592.71118	219.24179	173.80685	-882.56281	296.07834	144.74361	-555.86310	253.54738	163.00229	-658.68811	299.61029	157.07059	-621.82324	306.89737	158.33270	-527.97821	303.95071	146.25775	-832.64020	-35.71053	606.27887	-867.28003	-76.73968	856.51910	-844.08398	-46.17871	469.76593	-763.45081	-21.02798	201.42500	-875.87817	-78.62728	141.29668	-856.32227	-64.80352	742.11694	-834.10913	249.86440	562.45276	-725.18207	66.27223	220.57941	-825.80273	-33.06050	557.55090	-675.79425	176.05844	163.13281	-606.93341	-76.03463	156.53365	-649.07489	-68.72496	160.51776	-762.73193	16.46103	525.64618	-799.15875	145.27316	569.59631	-884.06036	290.17139	862.40540	
72	1.420	-120.47795	87.11638	1164.43188	-370.34738	250.86111	1040.56567	-946.36340	90.85648	1095.30017							-775.47791	210.85411	813.05524	-854.89441	283.74319	726.53192				-851.73785	254.98631	623.22388	-774.98102	-8.31288	805.53784	-770.79950	206.89807	536.36639	-851.72144	263.02032	482.81558	-518.18121	-72.64272	142.68623	-548.71497	-26.42074	162.93964	-783.77802	232.71022	990.03467	-792.61682	38.59064	171.05685	-597.16547	25.72491	167.29228	-671.36920	51.77439	162.95744	-720.62634	159.70703	222.30539	-798.00262	184.82387	179.75900	-772.31348	232.49130	201.04399	-592.50507	219.09215	173.77649	-882.63763	296.13953	144.71429	-555.89124	253.47174	163.00613	-658.26624	299.24243	157.43973	-621.43573	306.85568	158.63541	-527.97253	303.83521	146.30310	-833.01642	-35.64965	606.03265	-868.97552	-77.31852	856.31659	-844.63037	-45.81067	469.44614	-763.67218	-20.64951	201.25664	-875.99792	-78.69180	141.55168	-857.23889	-65.02867	741.95160	-833.97931	249.49324	562.54694	-725.18207	66.27223	220.57941	-826.29254	-33.42327	558.05573	-675.60223	175.85771	163.12709	-607.10999	-76.16862	156.39192	-649.14673	-68.54360	160.57521	-762.84357	16.58800	525.66528	-799.35638	145.00555	569.45355	-884.27191	290.09314	862.24280	
73	1.440	-119.16434	86.97513	1150.78271	-368.91669	250.62701	1029.43005	-945.04883	90.80141	1095.58398							-776.45825	209.30278	812.97699	-854.78162	283.59375	726.61792				-851.68298	254.82315	623.14288	-775.73199	-9.02965	805.41620	-770.70331	206.23236	536.19769	-851.74384	262.86310	482.90906	-518.07227	-72.69772	142.78549	-548.62378	-26.64600	163.00488	-783.73328	230.94038	987.21875	-792.73846	38.95749	171.22699	-597.14624	25.90161	167.35948	-671.51825	52.00003	163.10170	-720.69330	159.57030	222.20622	-797.81171	184.64758	179.77252	-772.10303	232.17288	200.93483	-592.53467	218.96771	173.54283	-882.58124	296.13739	144.77245	-555.85754	253.37831	162.85071	-658.20361	298.97934	157.62347	-621.43646	306.79086	158.72121	-528.03778	303.87247	146.36768	-833.43823	-35.70491	605.71149	-869.41595	-77.73909	856.02264	-844.63867	-45.84658	469.39767	-763.52173	-21.00795	201.34915	-875.96130	-78.84709	141.39201	-857.62628	-65.25815	741.69434	-833.66888	249.38644	562.86572	-725.18207	66.27223	220.57941	-826.81213	-33.09881	557.64746	-675.70776	175.75310	162.64452	-606.96625	-76.07934	156.41942	-649.06128	-68.49010	160.77620	-762.96204	16.73879	525.52863	-799.20673	144.49362	569.85443	-884.54089	290.09094	862.45337	
